<svg width="80" height="80" viewBox="0 0 80 80" fill="none" xmlns="http://www.w3.org/2000/svg">
<circle cx="40" cy="40" r="40" fill="#EFF6F3"/>
<path fill-rule="evenodd" clip-rule="evenodd" d="M57.5325 45.1297C57.1424 45.1319 56.7675 44.9784 56.4906 44.7029L52.9539 41.1566C52.6769 40.8812 52.302 40.7276 51.912 40.7299H36.9874C35.8173 40.7299 34.6953 40.2627 33.8692 39.4317C33.0431 38.6006 32.581 37.474 32.5849 36.3006V30.4145C32.5849 27.9765 34.556 26 36.9874 26H54.5975C57.0289 26 59 27.9765 59 30.4145V36.3006C59 37.1133 58.343 37.7721 57.5325 37.7721C56.722 37.7721 56.065 37.1133 56.065 36.3006V30.4145C56.065 29.6018 55.408 28.943 54.5975 28.943H36.9874C36.177 28.943 35.5199 29.6018 35.5199 30.4145V36.3006C35.5199 37.1133 36.177 37.7721 36.9874 37.7721H51.912C53.0792 37.7731 54.1982 38.2389 55.0231 39.067L58.5597 42.6134C58.9812 43.0325 59.1093 43.6649 58.8845 44.2157C58.6596 44.7664 58.126 45.1272 57.5325 45.1297ZM26.9717 46.2841V40.3473C26.9717 39.5276 27.6369 38.8631 28.4575 38.8631C29.2782 38.8631 29.9434 38.1986 29.9434 37.3789C29.9434 36.5592 29.2782 35.8947 28.4575 35.8947C25.9957 35.8947 24 37.8882 24 40.3473V46.2841C24 47.1038 24.6652 47.7683 25.4858 47.7683C26.3065 47.7683 26.9717 47.1038 26.9717 46.2841ZM30.1133 50.9686L26.5883 54.5235L26.5737 54.5087C26.2162 54.9297 25.6549 55.1131 25.1206 54.9834C24.5863 54.8538 24.1691 54.4331 24.0406 53.8943C23.9121 53.3554 24.0939 52.7894 24.5113 52.4289L28.051 48.874C28.8731 48.0439 29.9884 47.577 31.1518 47.576H46.0271C46.8349 47.576 47.4898 46.9156 47.4898 46.1009V44.6258C47.4898 43.8112 48.1446 43.1508 48.9524 43.1508C49.7602 43.1508 50.4151 43.8112 50.4151 44.6258V46.1009C50.4151 48.5449 48.4505 50.5261 46.0271 50.5261H31.1518C30.7609 50.5277 30.3869 50.6871 30.1133 50.9686Z" fill="#31795A"/>
</svg>
