<svg width="720" height="752" viewBox="0 0 720 752" fill="none" xmlns="http://www.w3.org/2000/svg">
<ellipse cx="348.472" cy="338" rx="339.472" ry="338" fill="#EFF6F3"/>
<g filter="url(#filter0_d_519_3202)">
<rect x="80" y="147" width="519.252" height="455" rx="15" fill="white"/>
</g>
<path d="M80 157C80 151.477 84.4772 147 90 147H589.252C594.775 147 599.252 151.477 599.252 157V182H80V157Z" fill="black"/>
<rect x="114.648" y="215.5" width="449.956" height="99" rx="9.5" fill="white" stroke="#EFEFEF"/>
<ellipse cx="166.877" cy="263.5" rx="25.6111" ry="25.5" fill="#CCCCCC"/>
<path d="M449.377 278.052V276.696H445.213V273.972H449.725V272.604H443.737V282H445.213V278.052H449.377ZM454.548 275.568C454.464 275.544 454.356 275.532 454.2 275.532C453.42 275.532 452.832 275.892 452.436 276.612V275.592H451.044V282H452.472V278.748C452.472 277.632 453.048 276.996 454.14 276.996C454.296 276.996 454.428 277.008 454.548 277.032V275.568ZM458.566 275.46C457.63 275.46 456.826 275.784 456.166 276.42C455.506 277.056 455.17 277.848 455.17 278.784C455.17 279.72 455.494 280.512 456.154 281.148C456.814 281.784 457.618 282.108 458.554 282.108C459.502 282.108 460.294 281.784 460.942 281.148C461.602 280.5 461.926 279.708 461.926 278.76C461.926 277.824 461.602 277.044 460.942 276.408C460.282 275.772 459.49 275.46 458.566 275.46ZM457.162 277.344C457.522 276.948 457.99 276.756 458.554 276.756C459.118 276.756 459.586 276.948 459.934 277.344C460.294 277.74 460.474 278.22 460.474 278.784C460.474 279.348 460.294 279.828 459.946 280.224C459.598 280.62 459.13 280.812 458.566 280.812C458.002 280.812 457.534 280.608 457.174 280.212C456.814 279.804 456.634 279.324 456.634 278.76C456.634 278.196 456.814 277.728 457.162 277.344ZM469.047 282V278.424C469.047 277.452 469.587 276.804 470.463 276.804C471.411 276.804 471.831 277.416 471.831 278.388V282H473.259V278.04C473.259 276.504 472.479 275.448 470.931 275.448C469.983 275.448 469.359 275.784 468.699 276.504C468.303 275.796 467.643 275.448 466.719 275.448C465.951 275.448 465.315 275.784 464.811 276.456V275.592H463.419V282H464.847V278.436C464.847 277.464 465.387 276.804 466.251 276.804C467.199 276.804 467.631 277.44 467.631 278.4V282H469.047Z" fill="black" fill-opacity="0.3"/>
<path d="M482.61 282.108C483.798 282.108 484.854 281.724 485.562 281.148C486.27 280.572 486.726 279.936 486.954 279.276L485.61 278.664C485.382 279.276 484.986 279.78 484.434 280.164C483.894 280.536 483.294 280.728 482.646 280.728C481.782 280.728 481.026 280.404 480.39 279.768C479.754 279.12 479.442 278.292 479.442 277.284C479.442 276.264 479.766 275.448 480.402 274.812C481.038 274.176 481.794 273.852 482.646 273.852C484.122 273.852 485.106 274.692 485.574 275.904L486.906 275.292C486.702 274.62 486.246 273.984 485.574 273.42C484.902 272.844 483.858 272.472 482.67 272.472C481.362 272.472 480.246 272.94 479.298 273.864C478.35 274.788 477.882 275.94 477.882 277.332C477.882 278.808 478.458 280.068 479.358 280.872C480.258 281.652 481.41 282.108 482.61 282.108ZM491.934 277.656C491.934 278.016 491.73 278.196 491.334 278.196H490.542C489.414 278.196 487.878 278.664 487.878 280.152V280.224C487.878 280.776 488.082 281.232 488.49 281.58C488.898 281.928 489.414 282.108 490.038 282.108C490.902 282.108 491.526 281.784 491.922 281.124V282H493.326V277.92C493.326 277.476 493.254 277.092 493.11 276.768C492.714 275.892 491.91 275.46 490.71 275.46C489.402 275.46 488.49 276 487.986 277.092L489.078 277.716C489.402 277.032 489.942 276.696 490.674 276.696C491.478 276.696 491.934 277.128 491.934 277.656ZM491.922 279.408C491.922 280.368 491.298 280.968 490.326 280.968C489.714 280.968 489.306 280.62 489.306 280.092C489.306 279.816 489.438 279.6 489.69 279.444C489.954 279.288 490.242 279.204 490.542 279.204H491.922V279.408ZM495.176 282H496.604V272.232H495.176V282ZM498.564 274.176C498.936 274.548 499.512 274.548 499.884 274.176C500.256 273.804 500.256 273.228 499.884 272.856C499.512 272.472 498.936 272.472 498.564 272.856C498.192 273.228 498.192 273.804 498.564 274.176ZM499.944 275.592H498.516V282H499.944V275.592ZM505.576 272.292C505.348 272.232 505.132 272.196 504.916 272.196C503.344 272.196 502.396 273.108 502.396 274.692V275.592H501.22V276.852H502.396V282H503.836V276.852H505.54V275.592H503.836V274.74C503.836 273.888 504.244 273.468 505.06 273.468C505.264 273.468 505.432 273.48 505.576 273.516V272.292ZM509.542 275.46C508.606 275.46 507.802 275.784 507.142 276.42C506.482 277.056 506.146 277.848 506.146 278.784C506.146 279.72 506.47 280.512 507.13 281.148C507.79 281.784 508.594 282.108 509.53 282.108C510.478 282.108 511.27 281.784 511.918 281.148C512.578 280.5 512.902 279.708 512.902 278.76C512.902 277.824 512.578 277.044 511.918 276.408C511.258 275.772 510.466 275.46 509.542 275.46ZM508.138 277.344C508.498 276.948 508.966 276.756 509.53 276.756C510.094 276.756 510.562 276.948 510.91 277.344C511.27 277.74 511.45 278.22 511.45 278.784C511.45 279.348 511.27 279.828 510.922 280.224C510.574 280.62 510.106 280.812 509.542 280.812C508.978 280.812 508.51 280.608 508.15 280.212C507.79 279.804 507.61 279.324 507.61 278.76C507.61 278.196 507.79 277.728 508.138 277.344ZM517.899 275.568C517.815 275.544 517.707 275.532 517.551 275.532C516.771 275.532 516.183 275.892 515.787 276.612V275.592H514.395V282H515.823V278.748C515.823 277.632 516.399 276.996 517.491 276.996C517.647 276.996 517.779 277.008 517.899 277.032V275.568ZM524.854 282V278.052C524.854 276.516 524.026 275.46 522.454 275.46C521.638 275.46 520.99 275.796 520.498 276.456V275.592H519.106V282H520.534V278.436C520.534 277.464 521.11 276.816 522.01 276.816C522.958 276.816 523.426 277.452 523.426 278.412V282H524.854ZM526.748 274.176C527.12 274.548 527.696 274.548 528.068 274.176C528.44 273.804 528.44 273.228 528.068 272.856C527.696 272.472 527.12 272.472 526.748 272.856C526.376 273.228 526.376 273.804 526.748 274.176ZM528.128 275.592H526.7V282H528.128V275.592ZM533.7 277.656C533.7 278.016 533.496 278.196 533.1 278.196H532.308C531.18 278.196 529.644 278.664 529.644 280.152V280.224C529.644 280.776 529.848 281.232 530.256 281.58C530.664 281.928 531.18 282.108 531.804 282.108C532.668 282.108 533.292 281.784 533.688 281.124V282H535.092V277.92C535.092 277.476 535.02 277.092 534.876 276.768C534.48 275.892 533.676 275.46 532.476 275.46C531.168 275.46 530.256 276 529.752 277.092L530.844 277.716C531.168 277.032 531.708 276.696 532.44 276.696C533.244 276.696 533.7 277.128 533.7 277.656ZM533.688 279.408C533.688 280.368 533.064 280.968 532.092 280.968C531.48 280.968 531.072 280.62 531.072 280.092C531.072 279.816 531.204 279.6 531.456 279.444C531.72 279.288 532.008 279.204 532.308 279.204H533.688V279.408Z" fill="black"/>
<path d="M216 254H218.016L219.168 251.056H225.312L226.448 254H228.496L223.424 241.472H221.104L216 254ZM222.24 243.36L224.624 249.312H219.872L222.24 243.36ZM237.475 254V248.736C237.475 246.688 236.371 245.28 234.275 245.28C233.187 245.28 232.323 245.728 231.667 246.608V245.456H229.811V254H231.715V249.248C231.715 247.952 232.483 247.088 233.683 247.088C234.947 247.088 235.571 247.936 235.571 249.216V254H237.475ZM244.592 247.168V245.456H242.496V242.816H240.592V245.456H239.024V247.168H240.592V251.248C240.592 253.104 241.68 254.096 243.552 254.096C243.92 254.096 244.272 254.032 244.576 253.92V252.304C244.368 252.352 244.16 252.368 243.968 252.368C242.992 252.368 242.496 251.968 242.496 250.944V247.168H244.592ZM250.388 245.28C249.14 245.28 248.068 245.712 247.188 246.56C246.308 247.408 245.86 248.464 245.86 249.712C245.86 250.96 246.292 252.016 247.172 252.864C248.052 253.712 249.124 254.144 250.372 254.144C251.636 254.144 252.692 253.712 253.556 252.864C254.436 252 254.868 250.944 254.868 249.68C254.868 248.432 254.436 247.392 253.556 246.544C252.676 245.696 251.62 245.28 250.388 245.28ZM248.516 247.792C248.996 247.264 249.62 247.008 250.372 247.008C251.124 247.008 251.748 247.264 252.212 247.792C252.692 248.32 252.932 248.96 252.932 249.712C252.932 250.464 252.692 251.104 252.228 251.632C251.764 252.16 251.14 252.416 250.388 252.416C249.636 252.416 249.012 252.144 248.532 251.616C248.052 251.072 247.812 250.432 247.812 249.68C247.812 248.928 248.052 248.304 248.516 247.792ZM264.522 254V248.736C264.522 246.688 263.418 245.28 261.322 245.28C260.234 245.28 259.37 245.728 258.714 246.608V245.456H256.858V254H258.762V249.248C258.762 247.952 259.53 247.088 260.73 247.088C261.994 247.088 262.618 247.936 262.618 249.216V254H264.522ZM267.047 243.568C267.543 244.064 268.311 244.064 268.807 243.568C269.303 243.072 269.303 242.304 268.807 241.808C268.311 241.296 267.543 241.296 267.047 241.808C266.551 242.304 266.551 243.072 267.047 243.568ZM268.887 245.456H266.983V254H268.887V245.456ZM275.372 245.28C274.124 245.28 273.052 245.712 272.172 246.56C271.292 247.408 270.844 248.464 270.844 249.712C270.844 250.96 271.276 252.016 272.156 252.864C273.036 253.712 274.108 254.144 275.356 254.144C276.62 254.144 277.676 253.712 278.54 252.864C279.42 252 279.852 250.944 279.852 249.68C279.852 248.432 279.42 247.392 278.54 246.544C277.66 245.696 276.604 245.28 275.372 245.28ZM273.5 247.792C273.98 247.264 274.604 247.008 275.356 247.008C276.108 247.008 276.732 247.264 277.196 247.792C277.676 248.32 277.916 248.96 277.916 249.712C277.916 250.464 277.676 251.104 277.212 251.632C276.748 252.16 276.124 252.416 275.372 252.416C274.62 252.416 273.996 252.144 273.516 251.616C273.036 251.072 272.796 250.432 272.796 249.68C272.796 248.928 273.036 248.304 273.5 247.792ZM290.537 251.728L286.809 241.472H284.617L289.369 254H291.641L296.377 241.472H294.297L290.537 251.728ZM300.841 245.28C299.593 245.28 298.521 245.712 297.641 246.56C296.761 247.408 296.313 248.464 296.313 249.712C296.313 250.96 296.745 252.016 297.625 252.864C298.505 253.712 299.577 254.144 300.825 254.144C302.089 254.144 303.145 253.712 304.009 252.864C304.889 252 305.321 250.944 305.321 249.68C305.321 248.432 304.889 247.392 304.009 246.544C303.129 245.696 302.073 245.28 300.841 245.28ZM298.969 247.792C299.449 247.264 300.073 247.008 300.825 247.008C301.577 247.008 302.201 247.264 302.665 247.792C303.145 248.32 303.385 248.96 303.385 249.712C303.385 250.464 303.145 251.104 302.681 251.632C302.217 252.16 301.593 252.416 300.841 252.416C300.089 252.416 299.465 252.144 298.985 251.616C298.505 251.072 298.265 250.432 298.265 249.68C298.265 248.928 298.505 248.304 298.969 247.792ZM307.311 254H309.215V240.976H307.311V254ZM316.644 248.208C316.644 248.688 316.372 248.928 315.844 248.928H314.788C313.284 248.928 311.236 249.552 311.236 251.536V251.632C311.236 252.368 311.508 252.976 312.052 253.44C312.596 253.904 313.284 254.144 314.116 254.144C315.268 254.144 316.1 253.712 316.628 252.832V254H318.5V248.56C318.5 247.968 318.404 247.456 318.212 247.024C317.684 245.856 316.612 245.28 315.012 245.28C313.268 245.28 312.052 246 311.38 247.456L312.836 248.288C313.268 247.376 313.988 246.928 314.964 246.928C316.036 246.928 316.644 247.504 316.644 248.208ZM316.628 250.544C316.628 251.824 315.796 252.624 314.5 252.624C313.684 252.624 313.14 252.16 313.14 251.456C313.14 251.088 313.316 250.8 313.652 250.592C314.004 250.384 314.388 250.272 314.788 250.272H316.628V250.544ZM323.736 254.144C324.696 254.144 325.48 253.904 326.072 253.408C326.664 252.912 326.968 252.272 326.968 251.488C326.968 250.16 325.944 249.232 324.008 248.8C322.904 248.56 322.424 248.272 322.424 247.712C322.424 247.248 323.032 246.88 323.624 246.88C324.44 246.88 325.032 247.264 325.416 248.032L326.888 247.2C326.296 245.92 325.224 245.28 323.688 245.28C322.856 245.28 322.136 245.52 321.512 246.016C320.888 246.512 320.584 247.136 320.584 247.904C320.584 248.512 320.792 249.024 321.192 249.456C321.656 249.952 322.376 250.288 323.32 250.48C324.488 250.72 325.08 251.104 325.08 251.6C325.08 252.176 324.456 252.544 323.736 252.544C322.824 252.544 322.152 252.08 321.688 251.168L320.2 252C320.856 253.424 322.039 254.144 323.736 254.144ZM328.999 254H330.903V249.824H330.951L334.519 254H337.031L332.967 249.328L336.823 245.456H334.231L330.919 248.816H330.903V240.976H328.999V254ZM342.941 248.208C342.941 248.688 342.669 248.928 342.141 248.928H341.085C339.581 248.928 337.533 249.552 337.533 251.536V251.632C337.533 252.368 337.805 252.976 338.349 253.44C338.893 253.904 339.581 254.144 340.413 254.144C341.565 254.144 342.397 253.712 342.925 252.832V254H344.797V248.56C344.797 247.968 344.701 247.456 344.509 247.024C343.981 245.856 342.909 245.28 341.309 245.28C339.565 245.28 338.349 246 337.677 247.456L339.133 248.288C339.565 247.376 340.285 246.928 341.261 246.928C342.333 246.928 342.941 247.504 342.941 248.208ZM342.925 250.544C342.925 251.824 342.093 252.624 340.797 252.624C339.981 252.624 339.437 252.16 339.437 251.456C339.437 251.088 339.613 250.8 339.949 250.592C340.301 250.384 340.685 250.272 341.085 250.272H342.925V250.544Z" fill="black"/>
<path d="M225.68 266.472V274.2C225.68 276.552 224.496 277.896 222.336 277.896C220.24 277.896 218.896 276.728 218.896 274.12V266.472H217.584V274.184C217.584 275.688 218 276.888 218.816 277.784C219.632 278.68 220.8 279.128 222.288 279.128C225.248 279.128 226.992 277.288 226.992 274.104V266.472H225.68ZM231.634 266.472H230.322V279H231.634V266.472ZM239.588 279H243.316C245.188 279 246.756 278.408 248.02 277.24C249.284 276.056 249.924 274.552 249.924 272.712C249.924 270.936 249.3 269.448 248.068 268.264C246.836 267.064 245.252 266.472 243.316 266.472H239.588V279ZM240.9 267.704H243.252C244.868 267.704 246.148 268.184 247.108 269.128C248.084 270.072 248.564 271.288 248.564 272.744C248.564 274.216 248.068 275.416 247.092 276.36C246.116 277.304 244.852 277.768 243.268 277.768H240.9V267.704ZM259.741 275.112C259.757 275.032 259.757 274.888 259.757 274.696C259.757 273.4 259.405 272.36 258.701 271.544C257.997 270.728 257.005 270.312 255.725 270.312C254.557 270.312 253.565 270.744 252.765 271.624C251.965 272.504 251.565 273.528 251.565 274.712C251.565 275.944 251.981 277 252.813 277.864C253.645 278.712 254.669 279.144 255.901 279.144C257.437 279.144 258.797 278.344 259.517 276.936L258.589 276.328C258.093 277.352 257.085 278.04 255.885 278.04C255.053 278.04 254.349 277.768 253.773 277.208C253.197 276.648 252.877 275.944 252.829 275.112H259.741ZM252.845 274.056C252.957 273.32 253.277 272.696 253.821 272.184C254.365 271.656 255.005 271.4 255.725 271.4C257.325 271.4 258.317 272.456 258.493 274.056H252.845ZM267.572 276.568C267.572 276.04 267.364 275.56 266.964 275.16C266.5 274.68 265.748 274.328 264.724 274.104C263.14 273.768 262.724 273.464 262.724 272.76C262.724 272.392 262.9 272.088 263.236 271.816C263.572 271.544 263.988 271.416 264.452 271.416C265.332 271.416 266.004 271.896 266.452 272.856L267.476 272.296C266.9 270.968 265.892 270.312 264.452 270.312C263.684 270.312 262.996 270.552 262.388 271.032C261.78 271.512 261.476 272.12 261.476 272.856C261.476 273.352 261.636 273.768 261.94 274.136C262.404 274.664 262.996 274.936 264.164 275.192C265.716 275.56 266.308 275.928 266.308 276.648C266.308 277.496 265.46 278.04 264.484 278.04C263.476 278.04 262.708 277.48 262.18 276.376L261.156 276.936C261.812 278.408 262.932 279.144 264.5 279.144C265.38 279.144 266.116 278.904 266.692 278.424C267.284 277.928 267.572 277.32 267.572 276.568ZM269.495 267.4C269.495 267.912 269.911 268.328 270.423 268.328C270.951 268.328 271.367 267.912 271.367 267.4C271.367 266.872 270.951 266.456 270.423 266.456C269.911 266.456 269.495 266.872 269.495 267.4ZM271.063 270.456H269.799V279H271.063V270.456ZM280.581 279.08C280.581 281.176 279.317 282.184 277.525 282.184C276.581 282.184 275.829 281.896 275.333 281.384C274.837 280.872 274.597 280.52 274.325 279.928L273.317 280.52C274.133 282.36 275.541 283.272 277.541 283.272C280.181 283.272 281.829 281.736 281.829 279.032V270.456H280.597V272.248C279.733 270.952 278.629 270.312 277.269 270.312C276.101 270.312 275.141 270.744 274.389 271.624C273.637 272.504 273.269 273.512 273.269 274.68C273.269 275.88 273.637 276.92 274.373 277.768C275.109 278.616 276.069 279.032 277.269 279.032C278.693 279.032 279.797 278.392 280.581 277.096V279.08ZM277.525 277.944C276.613 277.944 275.893 277.64 275.349 277.016C274.821 276.392 274.549 275.624 274.549 274.712C274.549 273.768 274.821 272.984 275.349 272.36C275.877 271.736 276.613 271.416 277.525 271.416C278.389 271.416 279.109 271.736 279.701 272.392C280.293 273.048 280.597 273.8 280.597 274.664C280.597 275.56 280.309 276.328 279.717 276.984C279.141 277.624 278.405 277.944 277.525 277.944ZM292.05 279V273.72C292.05 271.672 290.866 270.296 288.818 270.296C287.522 270.296 286.546 270.872 285.874 272.024V270.456H284.642V279H285.89V274.136C285.89 273.368 286.13 272.728 286.61 272.216C287.09 271.688 287.698 271.432 288.434 271.432C289.97 271.432 290.802 272.44 290.802 274.024V279H292.05ZM302.304 275.112C302.32 275.032 302.32 274.888 302.32 274.696C302.32 273.4 301.968 272.36 301.264 271.544C300.56 270.728 299.568 270.312 298.288 270.312C297.12 270.312 296.128 270.744 295.328 271.624C294.528 272.504 294.128 273.528 294.128 274.712C294.128 275.944 294.544 277 295.376 277.864C296.208 278.712 297.232 279.144 298.464 279.144C300 279.144 301.36 278.344 302.08 276.936L301.152 276.328C300.656 277.352 299.648 278.04 298.448 278.04C297.616 278.04 296.912 277.768 296.336 277.208C295.76 276.648 295.44 275.944 295.392 275.112H302.304ZM295.408 274.056C295.52 273.32 295.84 272.696 296.384 272.184C296.928 271.656 297.568 271.4 298.288 271.4C299.888 271.4 300.88 272.456 301.056 274.056H295.408ZM304.471 270.456V279H305.719V274.824C305.719 273.944 305.927 273.208 306.359 272.584C306.791 271.96 307.463 271.64 308.391 271.64C308.503 271.64 308.663 271.656 308.871 271.672V270.344C308.807 270.328 308.663 270.328 308.455 270.328C307.367 270.328 306.295 270.92 305.703 272.152V270.456H304.471Z" fill="black" fill-opacity="0.5"/>
<rect x="476.721" y="241" width="60.2614" height="20" rx="3" fill="black"/>
<path d="M486.66 254H487.767V250.958H491.25V254H492.357V246.953H491.25V249.905H487.767V246.953H486.66V254ZM494.657 254H495.764V246.953H494.657V254ZM498.057 254H499.164V251.327H500.505L502.035 254H503.286L501.612 251.138C502.557 250.823 503.106 250.103 503.106 249.122C503.106 248.501 502.908 247.988 502.521 247.574C502.134 247.16 501.522 246.953 500.703 246.953H498.057V254ZM499.164 247.979H500.586C501.738 247.979 501.981 248.609 501.981 249.149C501.981 249.797 501.567 250.328 500.586 250.328H499.164V247.979ZM509.535 247.952V246.953H505.026V254H509.571V252.992H506.133V250.913H509.229V249.914H506.133V247.952H509.535ZM520.874 254H521.972V246.953H520.523L518.174 252.344H518.165L515.78 246.953H514.367V254H515.456V248.888H515.474L517.751 254H518.57L520.856 248.861H520.874V254ZM528.78 247.952V246.953H524.271V254H528.816V252.992H525.378V250.913H528.474V249.914H525.378V247.952H528.78Z" fill="white"/>
<rect x="114.648" y="330.5" width="449.956" height="99" rx="9.5" fill="white" stroke="#EFEFEF"/>
<ellipse cx="166.877" cy="380.5" rx="25.6111" ry="25.5" fill="#CCCCCC"/>
<path d="M460.92 396.052V394.696H456.756V391.972H461.268V390.604H455.28V400H456.756V396.052H460.92ZM466.091 393.568C466.007 393.544 465.899 393.532 465.743 393.532C464.963 393.532 464.375 393.892 463.979 394.612V393.592H462.587V400H464.015V396.748C464.015 395.632 464.591 394.996 465.683 394.996C465.839 394.996 465.971 395.008 466.091 395.032V393.568ZM470.109 393.46C469.173 393.46 468.369 393.784 467.709 394.42C467.049 395.056 466.713 395.848 466.713 396.784C466.713 397.72 467.037 398.512 467.697 399.148C468.357 399.784 469.161 400.108 470.097 400.108C471.045 400.108 471.837 399.784 472.485 399.148C473.145 398.5 473.469 397.708 473.469 396.76C473.469 395.824 473.145 395.044 472.485 394.408C471.825 393.772 471.033 393.46 470.109 393.46ZM468.705 395.344C469.065 394.948 469.533 394.756 470.097 394.756C470.661 394.756 471.129 394.948 471.477 395.344C471.837 395.74 472.017 396.22 472.017 396.784C472.017 397.348 471.837 397.828 471.489 398.224C471.141 398.62 470.673 398.812 470.109 398.812C469.545 398.812 469.077 398.608 468.717 398.212C468.357 397.804 468.177 397.324 468.177 396.76C468.177 396.196 468.357 395.728 468.705 395.344ZM480.59 400V396.424C480.59 395.452 481.13 394.804 482.006 394.804C482.954 394.804 483.374 395.416 483.374 396.388V400H484.802V396.04C484.802 394.504 484.022 393.448 482.474 393.448C481.526 393.448 480.902 393.784 480.242 394.504C479.846 393.796 479.186 393.448 478.262 393.448C477.494 393.448 476.858 393.784 476.354 394.456V393.592H474.962V400H476.39V396.436C476.39 395.464 476.93 394.804 477.794 394.804C478.742 394.804 479.174 395.44 479.174 396.4V400H480.59Z" fill="black" fill-opacity="0.3"/>
<path d="M496.349 400H497.885V390.604H496.421V397.528L491.789 390.604H490.049V400H491.501V392.764L496.349 400ZM502.992 393.46C502.056 393.46 501.252 393.784 500.592 394.42C499.932 395.056 499.596 395.848 499.596 396.784C499.596 397.72 499.92 398.512 500.58 399.148C501.24 399.784 502.044 400.108 502.98 400.108C503.928 400.108 504.72 399.784 505.368 399.148C506.028 398.5 506.352 397.708 506.352 396.76C506.352 395.824 506.028 395.044 505.368 394.408C504.708 393.772 503.916 393.46 502.992 393.46ZM501.588 395.344C501.948 394.948 502.416 394.756 502.98 394.756C503.544 394.756 504.012 394.948 504.36 395.344C504.72 395.74 504.9 396.22 504.9 396.784C504.9 397.348 504.72 397.828 504.372 398.224C504.024 398.62 503.556 398.812 502.992 398.812C502.428 398.812 501.96 398.608 501.6 398.212C501.24 397.804 501.06 397.324 501.06 396.76C501.06 396.196 501.24 395.728 501.588 395.344ZM511.348 393.568C511.264 393.544 511.156 393.532 511 393.532C510.22 393.532 509.632 393.892 509.236 394.612V393.592H507.844V400H509.272V396.748C509.272 395.632 509.848 394.996 510.94 394.996C511.096 394.996 511.228 395.008 511.348 395.032V393.568ZM520.427 393.592L519.083 398.128H519.059L517.595 393.592H516.155L514.703 398.116H514.691L513.347 393.592H511.847L513.899 400H515.363L516.851 395.5H516.875L518.351 400H519.839L521.891 393.592H520.427ZM526.575 395.656C526.575 396.016 526.371 396.196 525.975 396.196H525.183C524.055 396.196 522.519 396.664 522.519 398.152V398.224C522.519 398.776 522.723 399.232 523.131 399.58C523.539 399.928 524.055 400.108 524.679 400.108C525.543 400.108 526.167 399.784 526.563 399.124V400H527.967V395.92C527.967 395.476 527.895 395.092 527.751 394.768C527.355 393.892 526.551 393.46 525.351 393.46C524.043 393.46 523.131 394 522.627 395.092L523.719 395.716C524.043 395.032 524.583 394.696 525.315 394.696C526.119 394.696 526.575 395.128 526.575 395.656ZM526.563 397.408C526.563 398.368 525.939 398.968 524.967 398.968C524.355 398.968 523.947 398.62 523.947 398.092C523.947 397.816 524.079 397.6 524.331 397.444C524.595 397.288 524.883 397.204 525.183 397.204H526.563V397.408ZM530.458 393.592H528.826L531.682 399.28L529.918 403.156H531.442L535.846 393.592H534.298L532.45 397.792L530.458 393.592Z" fill="black"/>
<path d="M216.918 356.689V358.559H223.905L216.646 368.198V370H226.608V368.13H219.179L226.455 358.474V356.689H216.918ZM228.381 360.922V366.498C228.381 368.674 229.588 370.187 231.781 370.187C232.937 370.187 233.855 369.711 234.552 368.776V370H236.524V360.922H234.501V365.971C234.501 367.348 233.685 368.266 232.41 368.266C231.067 368.266 230.404 367.365 230.404 366.005V360.922H228.381ZM248.71 365.427C248.71 364.22 248.302 363.132 247.469 362.18C246.653 361.228 245.582 360.752 244.256 360.752C243.729 360.752 243.168 360.888 242.573 361.16C241.978 361.415 241.553 361.789 241.264 362.265V356.162H239.241V370H241.213V368.606C241.502 369.082 241.944 369.456 242.539 369.728C243.134 370 243.695 370.136 244.205 370.136C245.514 370.136 246.585 369.677 247.435 368.742C248.285 367.807 248.71 366.702 248.71 365.427ZM241.978 363.404C242.488 362.843 243.151 362.571 243.95 362.571C244.749 362.571 245.412 362.843 245.905 363.404C246.415 363.965 246.67 364.645 246.67 365.444C246.67 366.243 246.415 366.923 245.905 367.484C245.412 368.028 244.749 368.3 243.95 368.3C243.151 368.3 242.488 368.028 241.978 367.484C241.485 366.923 241.23 366.243 241.23 365.444C241.23 364.645 241.485 363.965 241.978 363.404ZM255.997 363.846C255.997 364.356 255.708 364.611 255.147 364.611H254.025C252.427 364.611 250.251 365.274 250.251 367.382V367.484C250.251 368.266 250.54 368.912 251.118 369.405C251.696 369.898 252.427 370.153 253.311 370.153C254.535 370.153 255.419 369.694 255.98 368.759V370H257.969V364.22C257.969 363.591 257.867 363.047 257.663 362.588C257.102 361.347 255.963 360.735 254.263 360.735C252.41 360.735 251.118 361.5 250.404 363.047L251.951 363.931C252.41 362.962 253.175 362.486 254.212 362.486C255.351 362.486 255.997 363.098 255.997 363.846ZM255.98 366.328C255.98 367.688 255.096 368.538 253.719 368.538C252.852 368.538 252.274 368.045 252.274 367.297C252.274 366.906 252.461 366.6 252.818 366.379C253.192 366.158 253.6 366.039 254.025 366.039H255.98V366.328ZM261.499 360.922H259.187L263.233 368.98L260.734 374.471H262.893L269.132 360.922H266.939L264.321 366.872L261.499 360.922ZM278.699 366.056C278.716 365.903 278.733 365.699 278.733 365.427C278.733 364.016 278.342 362.894 277.56 362.027C276.778 361.16 275.69 360.735 274.313 360.735C273.004 360.735 271.916 361.194 271.049 362.112C270.182 363.03 269.74 364.135 269.74 365.444C269.74 366.787 270.199 367.926 271.1 368.827C272.018 369.728 273.157 370.17 274.5 370.17C276.132 370.17 277.611 369.388 278.376 367.977L276.914 367.008C276.421 367.943 275.605 368.419 274.466 368.419C273.769 368.419 273.157 368.198 272.63 367.756C272.103 367.297 271.831 366.736 271.814 366.056H278.699ZM274.313 362.469C275.605 362.469 276.608 363.251 276.676 364.526H271.916C272.103 363.285 273.072 362.469 274.313 362.469ZM285.775 360.888C285.656 360.854 285.503 360.837 285.282 360.837C284.177 360.837 283.344 361.347 282.783 362.367V360.922H280.811V370H282.834V365.393C282.834 363.812 283.65 362.911 285.197 362.911C285.418 362.911 285.605 362.928 285.775 362.962V360.888ZM289.661 370H291.803L293.027 366.872H299.555L300.762 370H302.938L297.549 356.689H295.084L289.661 370ZM296.291 358.695L298.824 365.019H293.775L296.291 358.695ZM304.336 370H306.359V356.162H304.336V370ZM313.889 370H315.98V364.254H322.559V370H324.65V356.689H322.559V362.265H315.98V356.689H313.889V370ZM332.896 363.846C332.896 364.356 332.607 364.611 332.046 364.611H330.924C329.326 364.611 327.15 365.274 327.15 367.382V367.484C327.15 368.266 327.439 368.912 328.017 369.405C328.595 369.898 329.326 370.153 330.21 370.153C331.434 370.153 332.318 369.694 332.879 368.759V370H334.868V364.22C334.868 363.591 334.766 363.047 334.562 362.588C334.001 361.347 332.862 360.735 331.162 360.735C329.309 360.735 328.017 361.5 327.303 363.047L328.85 363.931C329.309 362.962 330.074 362.486 331.111 362.486C332.25 362.486 332.896 363.098 332.896 363.846ZM332.879 366.328C332.879 367.688 331.995 368.538 330.618 368.538C329.751 368.538 329.173 368.045 329.173 367.297C329.173 366.906 329.36 366.6 329.717 366.379C330.091 366.158 330.499 366.039 330.924 366.039H332.879V366.328ZM340.43 370.153C341.45 370.153 342.283 369.898 342.912 369.371C343.541 368.844 343.864 368.164 343.864 367.331C343.864 365.92 342.776 364.934 340.719 364.475C339.546 364.22 339.036 363.914 339.036 363.319C339.036 362.826 339.682 362.435 340.311 362.435C341.178 362.435 341.807 362.843 342.215 363.659L343.779 362.775C343.15 361.415 342.011 360.735 340.379 360.735C339.495 360.735 338.73 360.99 338.067 361.517C337.404 362.044 337.081 362.707 337.081 363.523C337.081 364.169 337.302 364.713 337.727 365.172C338.22 365.699 338.985 366.056 339.988 366.26C341.229 366.515 341.858 366.923 341.858 367.45C341.858 368.062 341.195 368.453 340.43 368.453C339.461 368.453 338.747 367.96 338.254 366.991L336.673 367.875C337.37 369.388 338.628 370.153 340.43 370.153ZM351.207 363.846C351.207 364.356 350.918 364.611 350.357 364.611H349.235C347.637 364.611 345.461 365.274 345.461 367.382V367.484C345.461 368.266 345.75 368.912 346.328 369.405C346.906 369.898 347.637 370.153 348.521 370.153C349.745 370.153 350.629 369.694 351.19 368.759V370H353.179V364.22C353.179 363.591 353.077 363.047 352.873 362.588C352.312 361.347 351.173 360.735 349.473 360.735C347.62 360.735 346.328 361.5 345.614 363.047L347.161 363.931C347.62 362.962 348.385 362.486 349.422 362.486C350.561 362.486 351.207 363.098 351.207 363.846ZM351.19 366.328C351.19 367.688 350.306 368.538 348.929 368.538C348.062 368.538 347.484 368.045 347.484 367.297C347.484 366.906 347.671 366.6 348.028 366.379C348.402 366.158 348.81 366.039 349.235 366.039H351.19V366.328ZM363.943 370V364.407C363.943 362.231 362.77 360.735 360.543 360.735C359.387 360.735 358.469 361.211 357.772 362.146V360.922H355.8V370H357.823V364.951C357.823 363.574 358.639 362.656 359.914 362.656C361.257 362.656 361.92 363.557 361.92 364.917V370H363.943Z" fill="black"/>
<path d="M217.744 398H221.472C223.344 398 224.912 397.408 226.176 396.24C227.44 395.056 228.08 393.552 228.08 391.712C228.08 389.936 227.456 388.448 226.224 387.264C224.992 386.064 223.408 385.472 221.472 385.472H217.744V398ZM219.056 386.704H221.408C223.024 386.704 224.304 387.184 225.264 388.128C226.24 389.072 226.72 390.288 226.72 391.744C226.72 393.216 226.224 394.416 225.248 395.36C224.272 396.304 223.008 396.768 221.424 396.768H219.056V386.704ZM237.898 394.112C237.914 394.032 237.914 393.888 237.914 393.696C237.914 392.4 237.562 391.36 236.858 390.544C236.154 389.728 235.162 389.312 233.882 389.312C232.714 389.312 231.722 389.744 230.922 390.624C230.122 391.504 229.722 392.528 229.722 393.712C229.722 394.944 230.138 396 230.97 396.864C231.802 397.712 232.826 398.144 234.058 398.144C235.594 398.144 236.954 397.344 237.674 395.936L236.746 395.328C236.25 396.352 235.242 397.04 234.042 397.04C233.21 397.04 232.506 396.768 231.93 396.208C231.354 395.648 231.034 394.944 230.986 394.112H237.898ZM231.002 393.056C231.114 392.32 231.434 391.696 231.978 391.184C232.522 390.656 233.161 390.4 233.882 390.4C235.482 390.4 236.474 391.456 236.65 393.056H231.002ZM238.712 389.456L242.344 398H243.672L247.32 389.456H245.992L243.016 396.624L240.088 389.456H238.712ZM256.351 394.112C256.367 394.032 256.367 393.888 256.367 393.696C256.367 392.4 256.015 391.36 255.311 390.544C254.607 389.728 253.615 389.312 252.335 389.312C251.167 389.312 250.175 389.744 249.375 390.624C248.575 391.504 248.175 392.528 248.175 393.712C248.175 394.944 248.591 396 249.423 396.864C250.255 397.712 251.279 398.144 252.511 398.144C254.047 398.144 255.407 397.344 256.127 395.936L255.199 395.328C254.703 396.352 253.695 397.04 252.495 397.04C251.663 397.04 250.959 396.768 250.383 396.208C249.807 395.648 249.487 394.944 249.439 394.112H256.351ZM249.455 393.056C249.567 392.32 249.887 391.696 250.431 391.184C250.975 390.656 251.615 390.4 252.335 390.4C253.935 390.4 254.927 391.456 255.103 393.056H249.455ZM259.781 384.96H258.517V398H259.781V384.96ZM266.372 398.144C267.62 398.144 268.676 397.712 269.524 396.864C270.372 396.016 270.804 394.96 270.804 393.696C270.804 392.464 270.372 391.44 269.524 390.592C268.676 389.744 267.636 389.312 266.404 389.312C265.14 389.312 264.084 389.744 263.236 390.592C262.388 391.44 261.972 392.496 261.972 393.76C261.972 394.976 262.388 396.016 263.236 396.864C264.084 397.712 265.14 398.144 266.372 398.144ZM266.404 397.04C265.492 397.04 264.724 396.72 264.132 396.064C263.539 395.408 263.252 394.608 263.252 393.696C263.252 392.784 263.539 392 264.132 391.36C264.724 390.72 265.46 390.4 266.372 390.4C267.284 390.4 268.036 390.736 268.628 391.392C269.22 392.048 269.524 392.848 269.524 393.76C269.524 394.672 269.22 395.44 268.628 396.08C268.036 396.72 267.3 397.04 266.404 397.04ZM281.562 393.712C281.562 392.544 281.178 391.52 280.426 390.64C279.674 389.76 278.714 389.312 277.546 389.312C276.186 389.312 275.082 389.984 274.234 391.312V389.456H273.002V402.208H274.25V396.24C275.05 397.504 276.154 398.128 277.546 398.128C278.714 398.128 279.674 397.696 280.426 396.816C281.178 395.936 281.562 394.912 281.562 393.712ZM277.29 397.024C276.41 397.024 275.674 396.704 275.098 396.048C274.522 395.392 274.234 394.608 274.234 393.696C274.234 392.816 274.522 392.064 275.114 391.408C275.706 390.752 276.426 390.416 277.29 390.416C278.202 390.416 278.922 390.736 279.466 391.392C280.01 392.032 280.282 392.816 280.282 393.744C280.282 394.688 280.01 395.472 279.466 396.096C278.938 396.72 278.202 397.024 277.29 397.024ZM291.319 394.112C291.335 394.032 291.335 393.888 291.335 393.696C291.335 392.4 290.983 391.36 290.279 390.544C289.575 389.728 288.583 389.312 287.303 389.312C286.135 389.312 285.143 389.744 284.343 390.624C283.543 391.504 283.143 392.528 283.143 393.712C283.143 394.944 283.559 396 284.391 396.864C285.223 397.712 286.247 398.144 287.479 398.144C289.015 398.144 290.375 397.344 291.095 395.936L290.167 395.328C289.671 396.352 288.663 397.04 287.463 397.04C286.631 397.04 285.927 396.768 285.351 396.208C284.775 395.648 284.455 394.944 284.407 394.112H291.319ZM284.423 393.056C284.535 392.32 284.855 391.696 285.399 391.184C285.943 390.656 286.583 390.4 287.303 390.4C288.903 390.4 289.895 391.456 290.071 393.056H284.423ZM293.486 389.456V398H294.734V393.824C294.734 392.944 294.942 392.208 295.374 391.584C295.806 390.96 296.478 390.64 297.406 390.64C297.518 390.64 297.678 390.656 297.886 390.672V389.344C297.822 389.328 297.678 389.328 297.47 389.328C296.382 389.328 295.31 389.92 294.718 391.152V389.456H293.486ZM299.521 395.84C298.881 395.84 298.369 396.352 298.369 396.992C298.369 397.632 298.881 398.144 299.521 398.144C300.145 398.144 300.657 397.632 300.657 396.992C300.657 396.352 300.145 395.84 299.521 395.84Z" fill="black" fill-opacity="0.5"/>
<rect x="477" y="361" width="60.2614" height="20" rx="3" fill="black"/>
<path d="M485.935 374H487.042V370.958H490.525V374H491.632V366.953H490.525V369.905H487.042V366.953H485.935V374ZM493.932 374H495.039V366.953H493.932V374ZM497.332 374H498.439V371.327H499.78L501.31 374H502.561L500.887 371.138C501.832 370.823 502.381 370.103 502.381 369.122C502.381 368.501 502.183 367.988 501.796 367.574C501.409 367.16 500.797 366.953 499.978 366.953H497.332V374ZM498.439 367.979H499.861C501.013 367.979 501.256 368.609 501.256 369.149C501.256 369.797 500.842 370.328 499.861 370.328H498.439V367.979ZM508.81 367.952V366.953H504.301V374H508.846V372.992H505.408V370.913H508.504V369.914H505.408V367.952H508.81ZM520.149 374H521.247V366.953H519.798L517.449 372.344H517.44L515.055 366.953H513.642V374H514.731V368.888H514.749L517.026 374H517.845L520.131 368.861H520.149V374ZM528.055 367.952V366.953H523.546V374H528.091V372.992H524.653V370.913H527.749V369.914H524.653V367.952H528.055Z" fill="white"/>
<rect x="114.648" y="445.5" width="449.956" height="99" rx="9.5" fill="white" stroke="#EFEFEF"/>
<ellipse cx="166.877" cy="495.5" rx="25.6111" ry="25.5" fill="#CCCCCC"/>
<path d="M437.212 516.052V514.696H433.048V511.972H437.56V510.604H431.572V520H433.048V516.052H437.212ZM442.383 513.568C442.299 513.544 442.191 513.532 442.035 513.532C441.255 513.532 440.667 513.892 440.271 514.612V513.592H438.879V520H440.307V516.748C440.307 515.632 440.883 514.996 441.975 514.996C442.131 514.996 442.263 515.008 442.383 515.032V513.568ZM446.401 513.46C445.465 513.46 444.661 513.784 444.001 514.42C443.341 515.056 443.005 515.848 443.005 516.784C443.005 517.72 443.329 518.512 443.989 519.148C444.649 519.784 445.453 520.108 446.389 520.108C447.337 520.108 448.129 519.784 448.777 519.148C449.437 518.5 449.761 517.708 449.761 516.76C449.761 515.824 449.437 515.044 448.777 514.408C448.117 513.772 447.325 513.46 446.401 513.46ZM444.997 515.344C445.357 514.948 445.825 514.756 446.389 514.756C446.953 514.756 447.421 514.948 447.769 515.344C448.129 515.74 448.309 516.22 448.309 516.784C448.309 517.348 448.129 517.828 447.781 518.224C447.433 518.62 446.965 518.812 446.401 518.812C445.837 518.812 445.369 518.608 445.009 518.212C444.649 517.804 444.469 517.324 444.469 516.76C444.469 516.196 444.649 515.728 444.997 515.344ZM456.882 520V516.424C456.882 515.452 457.422 514.804 458.298 514.804C459.246 514.804 459.666 515.416 459.666 516.388V520H461.094V516.04C461.094 514.504 460.314 513.448 458.766 513.448C457.818 513.448 457.194 513.784 456.534 514.504C456.138 513.796 455.478 513.448 454.554 513.448C453.786 513.448 453.15 513.784 452.646 514.456V513.592H451.254V520H452.682V516.436C452.682 515.464 453.222 514.804 454.086 514.804C455.034 514.804 455.466 515.44 455.466 516.4V520H456.882Z" fill="black" fill-opacity="0.3"/>
<path d="M466.342 520H470.05C472.222 520 473.386 518.956 473.386 517.372C473.386 516.916 473.254 516.472 472.978 516.052C472.702 515.632 472.246 515.308 471.598 515.104C472.282 514.804 472.726 514.156 472.858 513.724C472.918 513.496 472.954 513.28 472.954 513.076C472.954 512.308 472.678 511.708 472.126 511.264C471.574 510.82 470.842 510.604 469.93 510.604H466.342V520ZM467.806 511.936H469.738C470.938 511.936 471.478 512.452 471.478 513.232C471.478 514.012 470.866 514.576 469.654 514.576H467.806V511.936ZM467.806 515.872H469.978C471.274 515.872 471.91 516.436 471.91 517.252C471.91 518.104 471.262 518.668 470.074 518.668H467.806V515.872ZM478.574 515.656C478.574 516.016 478.37 516.196 477.974 516.196H477.182C476.054 516.196 474.518 516.664 474.518 518.152V518.224C474.518 518.776 474.722 519.232 475.13 519.58C475.538 519.928 476.054 520.108 476.678 520.108C477.542 520.108 478.166 519.784 478.562 519.124V520H479.966V515.92C479.966 515.476 479.894 515.092 479.75 514.768C479.354 513.892 478.55 513.46 477.35 513.46C476.042 513.46 475.13 514 474.626 515.092L475.718 515.716C476.042 515.032 476.582 514.696 477.314 514.696C478.118 514.696 478.574 515.128 478.574 515.656ZM478.562 517.408C478.562 518.368 477.938 518.968 476.966 518.968C476.354 518.968 475.946 518.62 475.946 518.092C475.946 517.816 476.078 517.6 476.33 517.444C476.594 517.288 476.882 517.204 477.182 517.204H478.562V517.408ZM487.565 520V516.052C487.565 514.516 486.737 513.46 485.165 513.46C484.349 513.46 483.701 513.796 483.209 514.456V513.592H481.817V520H483.245V516.436C483.245 515.464 483.821 514.816 484.721 514.816C485.669 514.816 486.137 515.452 486.137 516.412V520H487.565ZM492.086 520.048C492.422 520.048 492.794 519.964 493.214 519.784C493.634 519.604 493.958 519.34 494.186 518.968V519.976C494.186 521.26 493.358 521.932 492.242 521.932C491.342 521.932 490.67 521.476 490.226 520.576L489.038 521.26C489.626 522.556 490.706 523.204 492.266 523.204C493.274 523.204 494.078 522.904 494.69 522.316C495.302 521.728 495.614 520.924 495.614 519.916V513.592H494.222V514.564C493.994 514.204 493.67 513.94 493.262 513.76C492.854 513.58 492.482 513.484 492.134 513.484C491.186 513.484 490.418 513.82 489.83 514.492C489.254 515.164 488.966 515.92 488.966 516.772C488.966 517.66 489.254 518.428 489.842 519.076C490.43 519.724 491.186 520.048 492.086 520.048ZM494.21 516.748C494.21 517.312 494.03 517.792 493.67 518.188C493.322 518.572 492.866 518.764 492.302 518.764C491.738 518.764 491.282 518.572 490.922 518.188C490.574 517.792 490.394 517.312 490.394 516.748C490.394 516.184 490.574 515.704 490.922 515.332C491.27 514.948 491.738 514.756 492.302 514.756C492.866 514.756 493.334 514.948 493.682 515.332C494.03 515.716 494.21 516.184 494.21 516.748ZM497.531 520H498.959V510.232H497.531V520ZM504.531 515.656C504.531 516.016 504.327 516.196 503.931 516.196H503.139C502.011 516.196 500.475 516.664 500.475 518.152V518.224C500.475 518.776 500.679 519.232 501.087 519.58C501.495 519.928 502.011 520.108 502.635 520.108C503.499 520.108 504.123 519.784 504.519 519.124V520H505.923V515.92C505.923 515.476 505.851 515.092 505.707 514.768C505.311 513.892 504.507 513.46 503.307 513.46C501.999 513.46 501.087 514 500.583 515.092L501.675 515.716C501.999 515.032 502.539 514.696 503.271 514.696C504.075 514.696 504.531 515.128 504.531 515.656ZM504.519 517.408C504.519 518.368 503.895 518.968 502.923 518.968C502.311 518.968 501.903 518.62 501.903 518.092C501.903 517.816 502.035 517.6 502.287 517.444C502.551 517.288 502.839 517.204 503.139 517.204H504.519V517.408ZM507.33 516.784C507.33 517.672 507.63 518.452 508.23 519.112C508.83 519.772 509.586 520.096 510.486 520.096C510.822 520.096 511.206 520.012 511.638 519.832C512.082 519.652 512.406 519.376 512.634 519.004V520H514.026V510.232H512.598V514.504C512.382 514.156 512.07 513.904 511.65 513.736C511.242 513.556 510.87 513.472 510.522 513.472C509.574 513.472 508.794 513.808 508.206 514.48C507.618 515.152 507.33 515.92 507.33 516.784ZM510.702 514.756C511.266 514.756 511.722 514.948 512.082 515.344C512.442 515.74 512.622 516.22 512.622 516.784C512.622 517.348 512.442 517.828 512.082 518.224C511.734 518.608 511.266 518.8 510.702 518.8C510.138 518.8 509.67 518.608 509.31 518.224C508.962 517.828 508.782 517.348 508.782 516.784C508.782 516.22 508.962 515.74 509.31 515.344C509.67 514.948 510.138 514.756 510.702 514.756ZM521.834 517.216C521.846 517.108 521.858 516.964 521.858 516.772C521.858 515.776 521.582 514.984 521.03 514.372C520.478 513.76 519.71 513.46 518.738 513.46C517.814 513.46 517.046 513.784 516.434 514.432C515.822 515.08 515.51 515.86 515.51 516.784C515.51 517.732 515.834 518.536 516.47 519.172C517.118 519.808 517.922 520.12 518.87 520.12C520.022 520.12 521.066 519.568 521.606 518.572L520.574 517.888C520.226 518.548 519.65 518.884 518.846 518.884C518.354 518.884 517.922 518.728 517.55 518.416C517.178 518.092 516.986 517.696 516.974 517.216H521.834ZM518.738 514.684C519.65 514.684 520.358 515.236 520.406 516.136H517.046C517.178 515.26 517.862 514.684 518.738 514.684ZM525.4 520.108C526.12 520.108 526.708 519.928 527.152 519.556C527.596 519.184 527.824 518.704 527.824 518.116C527.824 517.12 527.056 516.424 525.604 516.1C524.776 515.92 524.416 515.704 524.416 515.284C524.416 514.936 524.872 514.66 525.316 514.66C525.928 514.66 526.372 514.948 526.66 515.524L527.764 514.9C527.32 513.94 526.516 513.46 525.364 513.46C524.74 513.46 524.2 513.64 523.732 514.012C523.264 514.384 523.036 514.852 523.036 515.428C523.036 515.884 523.192 516.268 523.492 516.592C523.84 516.964 524.38 517.216 525.088 517.36C525.964 517.54 526.408 517.828 526.408 518.2C526.408 518.632 525.94 518.908 525.4 518.908C524.716 518.908 524.212 518.56 523.864 517.876L522.748 518.5C523.24 519.568 524.128 520.108 525.4 520.108ZM535.096 520V516.052C535.096 514.516 534.268 513.46 532.696 513.46C531.916 513.46 531.268 513.772 530.776 514.408V510.232H529.348V520H530.776V516.436C530.776 515.464 531.352 514.816 532.252 514.816C533.2 514.816 533.668 515.452 533.668 516.412V520H535.096Z" fill="black"/>
<path d="M217.7 491H219.791V485.951H222.324L225.214 491H227.577L224.415 485.594C226.2 484.999 227.237 483.639 227.237 481.786C227.237 480.613 226.863 479.644 226.132 478.862C225.401 478.08 224.245 477.689 222.698 477.689H217.7V491ZM219.791 479.627H222.477C224.653 479.627 225.112 480.817 225.112 481.837C225.112 483.061 224.33 484.064 222.477 484.064H219.791V479.627ZM234.764 484.846C234.764 485.356 234.475 485.611 233.914 485.611H232.792C231.194 485.611 229.018 486.274 229.018 488.382V488.484C229.018 489.266 229.307 489.912 229.885 490.405C230.463 490.898 231.194 491.153 232.078 491.153C233.302 491.153 234.186 490.694 234.747 489.759V491H236.736V485.22C236.736 484.591 236.634 484.047 236.43 483.588C235.869 482.347 234.73 481.735 233.03 481.735C231.177 481.735 229.885 482.5 229.171 484.047L230.718 484.931C231.177 483.962 231.942 483.486 232.979 483.486C234.118 483.486 234.764 484.098 234.764 484.846ZM234.747 487.328C234.747 488.688 233.863 489.538 232.486 489.538C231.619 489.538 231.041 489.045 231.041 488.297C231.041 487.906 231.228 487.6 231.585 487.379C231.959 487.158 232.367 487.039 232.792 487.039H234.747V487.328ZM242.298 491.153C243.318 491.153 244.151 490.898 244.78 490.371C245.409 489.844 245.732 489.164 245.732 488.331C245.732 486.92 244.644 485.934 242.587 485.475C241.414 485.22 240.904 484.914 240.904 484.319C240.904 483.826 241.55 483.435 242.179 483.435C243.046 483.435 243.675 483.843 244.083 484.659L245.647 483.775C245.018 482.415 243.879 481.735 242.247 481.735C241.363 481.735 240.598 481.99 239.935 482.517C239.272 483.044 238.949 483.707 238.949 484.523C238.949 485.169 239.17 485.713 239.595 486.172C240.088 486.699 240.853 487.056 241.856 487.26C243.097 487.515 243.726 487.923 243.726 488.45C243.726 489.062 243.063 489.453 242.298 489.453C241.329 489.453 240.615 488.96 240.122 487.991L238.541 488.875C239.238 490.388 240.496 491.153 242.298 491.153ZM256.033 491V485.407C256.033 483.231 254.86 481.735 252.633 481.735C251.528 481.735 250.61 482.177 249.913 483.078V477.162H247.89V491H249.913V485.951C249.913 484.574 250.729 483.656 252.004 483.656C253.347 483.656 254.01 484.557 254.01 485.917V491H256.033ZM266.995 487.056C267.012 486.903 267.029 486.699 267.029 486.427C267.029 485.016 266.638 483.894 265.856 483.027C265.074 482.16 263.986 481.735 262.609 481.735C261.3 481.735 260.212 482.194 259.345 483.112C258.478 484.03 258.036 485.135 258.036 486.444C258.036 487.787 258.495 488.926 259.396 489.827C260.314 490.728 261.453 491.17 262.796 491.17C264.428 491.17 265.907 490.388 266.672 488.977L265.21 488.008C264.717 488.943 263.901 489.419 262.762 489.419C262.065 489.419 261.453 489.198 260.926 488.756C260.399 488.297 260.127 487.736 260.11 487.056H266.995ZM262.609 483.469C263.901 483.469 264.904 484.251 264.972 485.526H260.212C260.399 484.285 261.368 483.469 262.609 483.469ZM268.478 486.444C268.478 487.702 268.903 488.807 269.753 489.742C270.603 490.677 271.674 491.136 272.949 491.136C273.425 491.136 273.969 491.017 274.581 490.762C275.21 490.507 275.669 490.116 275.992 489.589V491H277.964V477.162H275.941V483.214C275.635 482.721 275.193 482.364 274.598 482.126C274.02 481.871 273.493 481.752 273 481.752C271.657 481.752 270.552 482.228 269.719 483.18C268.886 484.132 268.478 485.22 268.478 486.444ZM273.255 483.571C274.054 483.571 274.7 483.843 275.21 484.404C275.72 484.965 275.975 485.645 275.975 486.444C275.975 487.243 275.72 487.923 275.21 488.484C274.717 489.028 274.054 489.3 273.255 489.3C272.456 489.3 271.793 489.028 271.283 488.484C270.79 487.923 270.535 487.243 270.535 486.444C270.535 485.645 270.79 484.965 271.283 484.404C271.793 483.843 272.456 483.571 273.255 483.571ZM285.501 477.689V491H287.592V484.71L293.185 491H296.007L289.717 484.047L295.667 477.689H292.896L287.592 483.435V477.689H285.501ZM302.299 484.846C302.299 485.356 302.01 485.611 301.449 485.611H300.327C298.729 485.611 296.553 486.274 296.553 488.382V488.484C296.553 489.266 296.842 489.912 297.42 490.405C297.998 490.898 298.729 491.153 299.613 491.153C300.837 491.153 301.721 490.694 302.282 489.759V491H304.271V485.22C304.271 484.591 304.169 484.047 303.965 483.588C303.404 482.347 302.265 481.735 300.565 481.735C298.712 481.735 297.42 482.5 296.706 484.047L298.253 484.931C298.712 483.962 299.477 483.486 300.514 483.486C301.653 483.486 302.299 484.098 302.299 484.846ZM302.282 487.328C302.282 488.688 301.398 489.538 300.021 489.538C299.154 489.538 298.576 489.045 298.576 488.297C298.576 487.906 298.763 487.6 299.12 487.379C299.494 487.158 299.902 487.039 300.327 487.039H302.282V487.328Z" fill="black"/>
<path d="M230.816 515V502.472H228.928L224.288 513.208L219.6 502.472H217.744V515H219.04V504.344L223.664 515H224.848L229.504 504.264H229.52V515H230.816ZM237.747 515.144C238.995 515.144 240.051 514.712 240.899 513.864C241.747 513.016 242.179 511.96 242.179 510.696C242.179 509.464 241.747 508.44 240.899 507.592C240.051 506.744 239.011 506.312 237.779 506.312C236.515 506.312 235.459 506.744 234.611 507.592C233.763 508.44 233.347 509.496 233.347 510.76C233.347 511.976 233.763 513.016 234.611 513.864C235.459 514.712 236.515 515.144 237.747 515.144ZM237.779 514.04C236.867 514.04 236.099 513.72 235.507 513.064C234.914 512.408 234.627 511.608 234.627 510.696C234.627 509.784 234.914 509 235.507 508.36C236.099 507.72 236.835 507.4 237.747 507.4C238.659 507.4 239.411 507.736 240.003 508.392C240.595 509.048 240.899 509.848 240.899 510.76C240.899 511.672 240.595 512.44 240.003 513.08C239.411 513.72 238.675 514.04 237.779 514.04ZM247.369 515.064C247.737 515.064 248.073 515.016 248.345 514.936V513.896C248.169 513.944 247.913 513.96 247.577 513.96C246.649 513.96 246.185 513.56 246.185 512.76V507.56H248.345V506.456H246.185V503.992H244.953V506.456H243.369V507.56H244.953V512.792C244.953 514.312 245.753 515.064 247.369 515.064ZM250.151 503.4C250.151 503.912 250.567 504.328 251.079 504.328C251.607 504.328 252.023 503.912 252.023 503.4C252.023 502.872 251.607 502.456 251.079 502.456C250.567 502.456 250.151 502.872 250.151 503.4ZM251.719 506.456H250.455V515H251.719V506.456ZM258.309 515.144C259.557 515.144 260.613 514.712 261.461 513.864C262.309 513.016 262.741 511.96 262.741 510.696C262.741 509.464 262.309 508.44 261.461 507.592C260.613 506.744 259.573 506.312 258.341 506.312C257.077 506.312 256.021 506.744 255.173 507.592C254.325 508.44 253.909 509.496 253.909 510.76C253.909 511.976 254.325 513.016 255.173 513.864C256.021 514.712 257.077 515.144 258.309 515.144ZM258.341 514.04C257.429 514.04 256.661 513.72 256.069 513.064C255.477 512.408 255.189 511.608 255.189 510.696C255.189 509.784 255.477 509 256.069 508.36C256.661 507.72 257.397 507.4 258.309 507.4C259.221 507.4 259.973 507.736 260.565 508.392C261.157 509.048 261.461 509.848 261.461 510.76C261.461 511.672 261.157 512.44 260.565 513.08C259.973 513.72 259.237 514.04 258.341 514.04ZM272.347 515V509.72C272.347 507.672 271.163 506.296 269.115 506.296C267.819 506.296 266.843 506.872 266.171 508.024V506.456H264.939V515H266.187V510.136C266.187 509.368 266.427 508.728 266.907 508.216C267.387 507.688 267.995 507.432 268.731 507.432C270.267 507.432 271.099 508.44 271.099 510.024V515H272.347ZM279.853 515H283.581C285.453 515 287.021 514.408 288.285 513.24C289.549 512.056 290.189 510.552 290.189 508.712C290.189 506.936 289.565 505.448 288.333 504.264C287.101 503.064 285.517 502.472 283.581 502.472H279.853V515ZM281.165 503.704H283.517C285.133 503.704 286.413 504.184 287.373 505.128C288.349 506.072 288.829 507.288 288.829 508.744C288.829 510.216 288.333 511.416 287.357 512.36C286.381 513.304 285.117 513.768 283.533 513.768H281.165V503.704ZM300.007 511.112C300.023 511.032 300.023 510.888 300.023 510.696C300.023 509.4 299.671 508.36 298.967 507.544C298.263 506.728 297.271 506.312 295.991 506.312C294.823 506.312 293.831 506.744 293.031 507.624C292.231 508.504 291.831 509.528 291.831 510.712C291.831 511.944 292.247 513 293.079 513.864C293.911 514.712 294.935 515.144 296.167 515.144C297.703 515.144 299.063 514.344 299.783 512.936L298.855 512.328C298.359 513.352 297.351 514.04 296.151 514.04C295.319 514.04 294.615 513.768 294.039 513.208C293.463 512.648 293.143 511.944 293.095 511.112H300.007ZM293.111 510.056C293.223 509.32 293.543 508.696 294.087 508.184C294.631 507.656 295.271 507.4 295.991 507.4C297.591 507.4 298.583 508.456 298.759 510.056H293.111ZM307.838 512.568C307.838 512.04 307.63 511.56 307.23 511.16C306.766 510.68 306.014 510.328 304.99 510.104C303.406 509.768 302.99 509.464 302.99 508.76C302.99 508.392 303.166 508.088 303.502 507.816C303.838 507.544 304.254 507.416 304.718 507.416C305.598 507.416 306.27 507.896 306.718 508.856L307.742 508.296C307.166 506.968 306.158 506.312 304.718 506.312C303.95 506.312 303.262 506.552 302.654 507.032C302.046 507.512 301.742 508.12 301.742 508.856C301.742 509.352 301.902 509.768 302.206 510.136C302.67 510.664 303.262 510.936 304.43 511.192C305.982 511.56 306.574 511.928 306.574 512.648C306.574 513.496 305.726 514.04 304.75 514.04C303.742 514.04 302.974 513.48 302.446 512.376L301.422 512.936C302.078 514.408 303.198 515.144 304.766 515.144C305.646 515.144 306.382 514.904 306.958 514.424C307.55 513.928 307.838 513.32 307.838 512.568ZM309.76 503.4C309.76 503.912 310.176 504.328 310.688 504.328C311.216 504.328 311.632 503.912 311.632 503.4C311.632 502.872 311.216 502.456 310.688 502.456C310.176 502.456 309.76 502.872 309.76 503.4ZM311.328 506.456H310.064V515H311.328V506.456ZM320.846 515.08C320.846 517.176 319.582 518.184 317.79 518.184C316.846 518.184 316.094 517.896 315.598 517.384C315.102 516.872 314.862 516.52 314.59 515.928L313.582 516.52C314.398 518.36 315.806 519.272 317.806 519.272C320.446 519.272 322.094 517.736 322.094 515.032V506.456H320.862V508.248C319.998 506.952 318.894 506.312 317.534 506.312C316.366 506.312 315.406 506.744 314.654 507.624C313.902 508.504 313.534 509.512 313.534 510.68C313.534 511.88 313.902 512.92 314.638 513.768C315.374 514.616 316.334 515.032 317.534 515.032C318.958 515.032 320.062 514.392 320.846 513.096V515.08ZM317.79 513.944C316.878 513.944 316.158 513.64 315.614 513.016C315.086 512.392 314.814 511.624 314.814 510.712C314.814 509.768 315.086 508.984 315.614 508.36C316.142 507.736 316.878 507.416 317.79 507.416C318.654 507.416 319.374 507.736 319.966 508.392C320.558 509.048 320.862 509.8 320.862 510.664C320.862 511.56 320.574 512.328 319.982 512.984C319.406 513.624 318.67 513.944 317.79 513.944ZM332.316 515V509.72C332.316 507.672 331.132 506.296 329.084 506.296C327.788 506.296 326.812 506.872 326.14 508.024V506.456H324.908V515H326.156V510.136C326.156 509.368 326.396 508.728 326.876 508.216C327.356 507.688 327.964 507.432 328.7 507.432C330.236 507.432 331.068 508.44 331.068 510.024V515H332.316ZM342.569 511.112C342.585 511.032 342.585 510.888 342.585 510.696C342.585 509.4 342.233 508.36 341.529 507.544C340.825 506.728 339.833 506.312 338.553 506.312C337.385 506.312 336.393 506.744 335.593 507.624C334.793 508.504 334.393 509.528 334.393 510.712C334.393 511.944 334.809 513 335.641 513.864C336.473 514.712 337.497 515.144 338.729 515.144C340.265 515.144 341.625 514.344 342.345 512.936L341.417 512.328C340.921 513.352 339.913 514.04 338.713 514.04C337.881 514.04 337.177 513.768 336.601 513.208C336.025 512.648 335.705 511.944 335.657 511.112H342.569ZM335.673 510.056C335.785 509.32 336.105 508.696 336.649 508.184C337.193 507.656 337.833 507.4 338.553 507.4C340.153 507.4 341.145 508.456 341.321 510.056H335.673ZM344.736 506.456V515H345.984V510.824C345.984 509.944 346.192 509.208 346.624 508.584C347.056 507.96 347.728 507.64 348.656 507.64C348.768 507.64 348.928 507.656 349.136 507.672V506.344C349.072 506.328 348.928 506.328 348.72 506.328C347.632 506.328 346.56 506.92 345.968 508.152V506.456H344.736ZM350.771 512.84C350.131 512.84 349.619 513.352 349.619 513.992C349.619 514.632 350.131 515.144 350.771 515.144C351.395 515.144 351.907 514.632 351.907 513.992C351.907 513.352 351.395 512.84 350.771 512.84Z" fill="black" fill-opacity="0.5"/>
<rect x="476.721" y="481" width="60.2614" height="20" rx="3" fill="black"/>
<path d="M485.655 494H486.762V490.958H490.245V494H491.352V486.953H490.245V489.905H486.762V486.953H485.655V494ZM493.652 494H494.759V486.953H493.652V494ZM497.053 494H498.16V491.327H499.501L501.031 494H502.282L500.608 491.138C501.553 490.823 502.102 490.103 502.102 489.122C502.102 488.501 501.904 487.988 501.517 487.574C501.13 487.16 500.518 486.953 499.699 486.953H497.053V494ZM498.16 487.979H499.582C500.734 487.979 500.977 488.609 500.977 489.149C500.977 489.797 500.563 490.328 499.582 490.328H498.16V487.979ZM508.531 487.952V486.953H504.022V494H508.567V492.992H505.129V490.913H508.225V489.914H505.129V487.952H508.531ZM519.869 494H520.967V486.953H519.518L517.169 492.344H517.16L514.775 486.953H513.362V494H514.451V488.888H514.469L516.746 494H517.565L519.851 488.861H519.869V494ZM527.776 487.952V486.953H523.267V494H527.812V492.992H524.374V490.913H527.47V489.914H524.374V487.952H527.776Z" fill="white"/>
<ellipse cx="101.092" cy="165" rx="3.01307" ry="3" fill="white"/>
<ellipse cx="110.131" cy="165" rx="3.01307" ry="3" fill="white"/>
<ellipse cx="119.17" cy="165" rx="3.01307" ry="3" fill="white"/>
<path d="M583.245 165.031L587.072 168.841L586.051 169.857L582.225 166.047L578.398 169.857L577.378 168.841L581.204 165.031L577.378 161.22L578.398 160.204L582.225 164.014L586.051 160.204L587.072 161.22L583.245 165.031Z" fill="white"/>
<g filter="url(#filter1_d_519_3202)">
<rect x="80.3096" y="36" width="431.873" height="70" rx="10" fill="white"/>
</g>
<path d="M115.197 77H118.925C120.797 77 122.365 76.408 123.629 75.24C124.893 74.056 125.533 72.552 125.533 70.712C125.533 68.936 124.909 67.448 123.677 66.264C122.445 65.064 120.861 64.472 118.925 64.472H115.197V77ZM116.509 65.704H118.861C120.477 65.704 121.757 66.184 122.717 67.128C123.693 68.072 124.173 69.288 124.173 70.744C124.173 72.216 123.677 73.416 122.701 74.36C121.725 75.304 120.461 75.768 118.877 75.768H116.509V65.704ZM135.351 73.112C135.367 73.032 135.367 72.888 135.367 72.696C135.367 71.4 135.015 70.36 134.311 69.544C133.607 68.728 132.615 68.312 131.335 68.312C130.167 68.312 129.175 68.744 128.375 69.624C127.575 70.504 127.175 71.528 127.175 72.712C127.175 73.944 127.591 75 128.423 75.864C129.255 76.712 130.279 77.144 131.511 77.144C133.047 77.144 134.407 76.344 135.127 74.936L134.199 74.328C133.703 75.352 132.695 76.04 131.495 76.04C130.663 76.04 129.959 75.768 129.383 75.208C128.807 74.648 128.487 73.944 128.439 73.112H135.351ZM128.455 72.056C128.567 71.32 128.887 70.696 129.431 70.184C129.975 69.656 130.615 69.4 131.335 69.4C132.935 69.4 133.927 70.456 134.103 72.056H128.455ZM143.181 74.568C143.181 74.04 142.973 73.56 142.573 73.16C142.109 72.68 141.357 72.328 140.333 72.104C138.749 71.768 138.333 71.464 138.333 70.76C138.333 70.392 138.509 70.088 138.845 69.816C139.181 69.544 139.597 69.416 140.061 69.416C140.941 69.416 141.613 69.896 142.061 70.856L143.085 70.296C142.509 68.968 141.501 68.312 140.061 68.312C139.293 68.312 138.605 68.552 137.997 69.032C137.389 69.512 137.085 70.12 137.085 70.856C137.085 71.352 137.245 71.768 137.549 72.136C138.013 72.664 138.605 72.936 139.773 73.192C141.325 73.56 141.917 73.928 141.917 74.648C141.917 75.496 141.069 76.04 140.093 76.04C139.085 76.04 138.317 75.48 137.789 74.376L136.765 74.936C137.421 76.408 138.541 77.144 140.109 77.144C140.989 77.144 141.725 76.904 142.301 76.424C142.893 75.928 143.181 75.32 143.181 74.568ZM145.104 65.4C145.104 65.912 145.52 66.328 146.032 66.328C146.56 66.328 146.976 65.912 146.976 65.4C146.976 64.872 146.56 64.456 146.032 64.456C145.52 64.456 145.104 64.872 145.104 65.4ZM146.672 68.456H145.408V77H146.672V68.456ZM156.19 77.08C156.19 79.176 154.926 80.184 153.134 80.184C152.19 80.184 151.438 79.896 150.942 79.384C150.446 78.872 150.206 78.52 149.934 77.928L148.926 78.52C149.742 80.36 151.15 81.272 153.15 81.272C155.79 81.272 157.438 79.736 157.438 77.032V68.456H156.206V70.248C155.342 68.952 154.238 68.312 152.878 68.312C151.71 68.312 150.75 68.744 149.998 69.624C149.246 70.504 148.878 71.512 148.878 72.68C148.878 73.88 149.246 74.92 149.982 75.768C150.718 76.616 151.678 77.032 152.878 77.032C154.302 77.032 155.406 76.392 156.19 75.096V77.08ZM153.134 75.944C152.222 75.944 151.502 75.64 150.958 75.016C150.43 74.392 150.158 73.624 150.158 72.712C150.158 71.768 150.43 70.984 150.958 70.36C151.486 69.736 152.222 69.416 153.134 69.416C153.998 69.416 154.718 69.736 155.31 70.392C155.902 71.048 156.206 71.8 156.206 72.664C156.206 73.56 155.918 74.328 155.326 74.984C154.75 75.624 154.014 75.944 153.134 75.944ZM167.66 77V71.72C167.66 69.672 166.476 68.296 164.428 68.296C163.132 68.296 162.156 68.872 161.484 70.024V68.456H160.252V77H161.5V72.136C161.5 71.368 161.74 70.728 162.22 70.216C162.7 69.688 163.308 69.432 164.044 69.432C165.58 69.432 166.412 70.44 166.412 72.024V77H167.66ZM177.913 73.112C177.929 73.032 177.929 72.888 177.929 72.696C177.929 71.4 177.577 70.36 176.873 69.544C176.169 68.728 175.177 68.312 173.897 68.312C172.729 68.312 171.737 68.744 170.937 69.624C170.137 70.504 169.737 71.528 169.737 72.712C169.737 73.944 170.153 75 170.985 75.864C171.817 76.712 172.841 77.144 174.073 77.144C175.609 77.144 176.969 76.344 177.689 74.936L176.761 74.328C176.265 75.352 175.257 76.04 174.057 76.04C173.225 76.04 172.521 75.768 171.945 75.208C171.369 74.648 171.049 73.944 171.001 73.112H177.913ZM171.017 72.056C171.129 71.32 171.449 70.696 171.993 70.184C172.537 69.656 173.177 69.4 173.897 69.4C175.497 69.4 176.489 70.456 176.665 72.056H171.017ZM180.08 68.456V77H181.328V72.824C181.328 71.944 181.536 71.208 181.968 70.584C182.4 69.96 183.072 69.64 184 69.64C184.112 69.64 184.272 69.656 184.48 69.672V68.344C184.416 68.328 184.272 68.328 184.064 68.328C182.976 68.328 181.904 68.92 181.312 70.152V68.456H180.08ZM185.635 79.448C186.771 78.632 187.347 77.64 187.347 76.472V76.408C187.347 75.464 186.835 74.84 186.083 74.84C185.459 74.84 184.963 75.336 184.963 75.976C184.963 76.616 185.395 77.032 186.019 77.032C186.147 77.032 186.275 77 186.403 76.952C186.307 77.608 185.843 78.248 185.011 78.872L185.635 79.448ZM194.682 77H199.338C200.618 77 201.674 76.712 202.506 76.136C203.354 75.56 203.77 74.696 203.77 73.56C203.77 72.968 203.562 72.36 203.162 71.736C202.762 71.112 202.138 70.696 201.306 70.488C202.122 70.12 202.714 69.544 202.922 68.968C203.162 68.376 203.21 68.008 203.21 67.624C203.21 66.632 202.826 65.864 202.074 65.304C201.322 64.744 200.362 64.472 199.178 64.472H194.682V77ZM195.978 65.672H199.066C200.666 65.672 201.882 66.344 201.882 67.768C201.882 69.096 200.938 70.04 198.97 70.04H195.978V65.672ZM195.978 71.208H199.13C200.218 71.208 201.161 71.384 201.882 72.104C202.25 72.456 202.426 72.904 202.426 73.464C202.426 74.28 202.122 74.872 201.498 75.24C200.89 75.608 200.186 75.8 199.37 75.8H195.978V71.208ZM206.08 68.456V77H207.328V72.824C207.328 71.944 207.536 71.208 207.968 70.584C208.4 69.96 209.072 69.64 210 69.64C210.112 69.64 210.272 69.656 210.48 69.672V68.344C210.416 68.328 210.272 68.328 210.064 68.328C208.976 68.328 207.904 68.92 207.312 70.152V68.456H206.08ZM214.739 72.072C213.843 72.072 213.059 72.28 212.371 72.68C211.699 73.08 211.363 73.688 211.363 74.536V74.632C211.363 75.352 211.619 75.96 212.147 76.44C212.675 76.904 213.379 77.144 214.227 77.144C215.443 77.144 216.403 76.6 217.107 75.496H217.123V77H218.339V71.48C218.339 70.952 218.259 70.488 218.083 70.072C217.571 68.904 216.531 68.312 214.963 68.312C213.267 68.312 212.099 69.048 211.459 70.52L212.483 71.096C213.011 69.976 213.827 69.416 214.931 69.416C216.387 69.416 217.107 70.104 217.107 71.496V72.072H214.739ZM217.107 73.4C217.107 74.184 216.851 74.808 216.355 75.304C215.859 75.8 215.219 76.04 214.451 76.04C213.379 76.04 212.611 75.48 212.611 74.536C212.659 73.416 213.747 73.08 214.723 73.096H217.107V73.4ZM228.457 77V71.72C228.457 69.672 227.273 68.296 225.225 68.296C223.929 68.296 222.953 68.872 222.281 70.024V68.456H221.049V77H222.297V72.136C222.297 71.368 222.537 70.728 223.017 70.216C223.497 69.688 224.105 69.432 224.841 69.432C226.377 69.432 227.209 70.44 227.209 72.024V77H228.457ZM230.55 72.712C230.55 73.928 230.918 74.968 231.654 75.832C232.406 76.696 233.366 77.128 234.55 77.128C235.974 77.128 237.094 76.472 237.878 75.176V77H239.094V63.976H237.862V70.248C236.982 68.952 235.878 68.312 234.55 68.312C233.382 68.312 232.422 68.76 231.67 69.64C230.918 70.52 230.55 71.544 230.55 72.712ZM234.806 76.024C233.894 76.024 233.174 75.704 232.63 75.08C232.086 74.44 231.814 73.656 231.814 72.744C231.814 71.8 232.086 71 232.63 70.376C233.174 69.736 233.894 69.416 234.806 69.416C235.67 69.416 236.39 69.752 236.982 70.408C237.574 71.064 237.878 71.816 237.878 72.696C237.878 73.608 237.59 74.392 236.998 75.048C236.422 75.704 235.686 76.024 234.806 76.024ZM242.276 79.448C243.412 78.632 243.988 77.64 243.988 76.472V76.408C243.988 75.464 243.476 74.84 242.724 74.84C242.1 74.84 241.604 75.336 241.604 75.976C241.604 76.616 242.036 77.032 242.66 77.032C242.788 77.032 242.916 77 243.044 76.952C242.948 77.608 242.484 78.248 241.652 78.872L242.276 79.448ZM252.634 64.472H251.322V77H258.57V75.768H252.634V64.472ZM263.903 77.144C265.151 77.144 266.207 76.712 267.055 75.864C267.903 75.016 268.335 73.96 268.335 72.696C268.335 71.464 267.903 70.44 267.055 69.592C266.207 68.744 265.167 68.312 263.935 68.312C262.671 68.312 261.615 68.744 260.767 69.592C259.919 70.44 259.503 71.496 259.503 72.76C259.503 73.976 259.919 75.016 260.767 75.864C261.615 76.712 262.671 77.144 263.903 77.144ZM263.935 76.04C263.023 76.04 262.255 75.72 261.663 75.064C261.071 74.408 260.783 73.608 260.783 72.696C260.783 71.784 261.071 71 261.663 70.36C262.255 69.72 262.991 69.4 263.903 69.4C264.815 69.4 265.567 69.736 266.159 70.392C266.751 71.048 267.055 71.848 267.055 72.76C267.055 73.672 266.751 74.44 266.159 75.08C265.567 75.72 264.831 76.04 263.935 76.04ZM277.237 77.08C277.237 79.176 275.973 80.184 274.181 80.184C273.237 80.184 272.485 79.896 271.989 79.384C271.493 78.872 271.253 78.52 270.981 77.928L269.973 78.52C270.789 80.36 272.197 81.272 274.197 81.272C276.837 81.272 278.485 79.736 278.485 77.032V68.456H277.253V70.248C276.389 68.952 275.285 68.312 273.925 68.312C272.757 68.312 271.797 68.744 271.045 69.624C270.293 70.504 269.925 71.512 269.925 72.68C269.925 73.88 270.293 74.92 271.029 75.768C271.765 76.616 272.725 77.032 273.925 77.032C275.349 77.032 276.453 76.392 277.237 75.096V77.08ZM274.181 75.944C273.269 75.944 272.549 75.64 272.005 75.016C271.477 74.392 271.205 73.624 271.205 72.712C271.205 71.768 271.477 70.984 272.005 70.36C272.533 69.736 273.269 69.416 274.181 69.416C275.045 69.416 275.765 69.736 276.357 70.392C276.949 71.048 277.253 71.8 277.253 72.664C277.253 73.56 276.965 74.328 276.373 74.984C275.797 75.624 275.061 75.944 274.181 75.944ZM285.075 77.144C286.323 77.144 287.379 76.712 288.227 75.864C289.075 75.016 289.507 73.96 289.507 72.696C289.507 71.464 289.075 70.44 288.227 69.592C287.379 68.744 286.339 68.312 285.107 68.312C283.843 68.312 282.787 68.744 281.939 69.592C281.091 70.44 280.675 71.496 280.675 72.76C280.675 73.976 281.091 75.016 281.939 75.864C282.787 76.712 283.843 77.144 285.075 77.144ZM285.107 76.04C284.195 76.04 283.427 75.72 282.835 75.064C282.243 74.408 281.955 73.608 281.955 72.696C281.955 71.784 282.243 71 282.835 70.36C283.427 69.72 284.163 69.4 285.075 69.4C285.987 69.4 286.739 69.736 287.331 70.392C287.923 71.048 288.227 71.848 288.227 72.76C288.227 73.672 287.923 74.44 287.331 75.08C286.739 75.72 286.003 76.04 285.107 76.04ZM295.566 72.712C295.566 73.928 295.934 74.968 296.67 75.832C297.422 76.696 298.382 77.128 299.566 77.128C300.99 77.128 302.11 76.472 302.894 75.176V77H304.11V63.976H302.878V70.248C301.998 68.952 300.894 68.312 299.566 68.312C298.398 68.312 297.438 68.76 296.686 69.64C295.934 70.52 295.566 71.544 295.566 72.712ZM299.822 76.024C298.91 76.024 298.19 75.704 297.646 75.08C297.102 74.44 296.83 73.656 296.83 72.744C296.83 71.8 297.102 71 297.646 70.376C298.19 69.736 298.91 69.416 299.822 69.416C300.686 69.416 301.406 69.752 301.998 70.408C302.59 71.064 302.894 71.816 302.894 72.696C302.894 73.608 302.606 74.392 302.014 75.048C301.438 75.704 300.702 76.024 299.822 76.024ZM314.491 73.112C314.507 73.032 314.507 72.888 314.507 72.696C314.507 71.4 314.155 70.36 313.451 69.544C312.747 68.728 311.755 68.312 310.475 68.312C309.307 68.312 308.315 68.744 307.515 69.624C306.715 70.504 306.315 71.528 306.315 72.712C306.315 73.944 306.731 75 307.563 75.864C308.395 76.712 309.419 77.144 310.651 77.144C312.187 77.144 313.547 76.344 314.267 74.936L313.339 74.328C312.843 75.352 311.835 76.04 310.635 76.04C309.803 76.04 309.099 75.768 308.523 75.208C307.947 74.648 307.627 73.944 307.579 73.112H314.491ZM307.595 72.056C307.707 71.32 308.027 70.696 308.571 70.184C309.115 69.656 309.755 69.4 310.475 69.4C312.075 69.4 313.067 70.456 313.243 72.056H307.595ZM322.322 74.568C322.322 74.04 322.114 73.56 321.714 73.16C321.25 72.68 320.498 72.328 319.474 72.104C317.89 71.768 317.474 71.464 317.474 70.76C317.474 70.392 317.65 70.088 317.986 69.816C318.322 69.544 318.738 69.416 319.202 69.416C320.082 69.416 320.754 69.896 321.202 70.856L322.226 70.296C321.65 68.968 320.642 68.312 319.202 68.312C318.434 68.312 317.746 68.552 317.138 69.032C316.53 69.512 316.226 70.12 316.226 70.856C316.226 71.352 316.386 71.768 316.69 72.136C317.154 72.664 317.746 72.936 318.914 73.192C320.466 73.56 321.058 73.928 321.058 74.648C321.058 75.496 320.21 76.04 319.234 76.04C318.226 76.04 317.458 75.48 316.93 74.376L315.906 74.936C316.562 76.408 317.682 77.144 319.25 77.144C320.13 77.144 320.866 76.904 321.442 76.424C322.034 75.928 322.322 75.32 322.322 74.568ZM324.245 65.4C324.245 65.912 324.661 66.328 325.173 66.328C325.701 66.328 326.117 65.912 326.117 65.4C326.117 64.872 325.701 64.456 325.173 64.456C324.661 64.456 324.245 64.872 324.245 65.4ZM325.813 68.456H324.549V77H325.813V68.456ZM335.331 77.08C335.331 79.176 334.067 80.184 332.275 80.184C331.331 80.184 330.579 79.896 330.083 79.384C329.587 78.872 329.347 78.52 329.075 77.928L328.067 78.52C328.883 80.36 330.291 81.272 332.291 81.272C334.931 81.272 336.579 79.736 336.579 77.032V68.456H335.347V70.248C334.483 68.952 333.379 68.312 332.019 68.312C330.851 68.312 329.891 68.744 329.139 69.624C328.387 70.504 328.019 71.512 328.019 72.68C328.019 73.88 328.387 74.92 329.123 75.768C329.859 76.616 330.819 77.032 332.019 77.032C333.443 77.032 334.547 76.392 335.331 75.096V77.08ZM332.275 75.944C331.363 75.944 330.643 75.64 330.099 75.016C329.571 74.392 329.299 73.624 329.299 72.712C329.299 71.768 329.571 70.984 330.099 70.36C330.627 69.736 331.363 69.416 332.275 69.416C333.139 69.416 333.859 69.736 334.451 70.392C335.043 71.048 335.347 71.8 335.347 72.664C335.347 73.56 335.059 74.328 334.467 74.984C333.891 75.624 333.155 75.944 332.275 75.944ZM346.8 77V71.72C346.8 69.672 345.616 68.296 343.568 68.296C342.272 68.296 341.296 68.872 340.624 70.024V68.456H339.392V77H340.64V72.136C340.64 71.368 340.88 70.728 341.36 70.216C341.84 69.688 342.448 69.432 343.184 69.432C344.72 69.432 345.552 70.44 345.552 72.024V77H346.8ZM357.054 73.112C357.07 73.032 357.07 72.888 357.07 72.696C357.07 71.4 356.718 70.36 356.014 69.544C355.31 68.728 354.318 68.312 353.038 68.312C351.87 68.312 350.878 68.744 350.078 69.624C349.278 70.504 348.878 71.528 348.878 72.712C348.878 73.944 349.294 75 350.126 75.864C350.958 76.712 351.982 77.144 353.214 77.144C354.75 77.144 356.11 76.344 356.83 74.936L355.902 74.328C355.406 75.352 354.398 76.04 353.198 76.04C352.366 76.04 351.662 75.768 351.086 75.208C350.51 74.648 350.19 73.944 350.142 73.112H357.054ZM350.158 72.056C350.27 71.32 350.59 70.696 351.134 70.184C351.678 69.656 352.318 69.4 353.038 69.4C354.638 69.4 355.63 70.456 355.806 72.056H350.158ZM359.221 68.456V77H360.469V72.824C360.469 71.944 360.677 71.208 361.109 70.584C361.541 69.96 362.213 69.64 363.141 69.64C363.253 69.64 363.413 69.656 363.621 69.672V68.344C363.557 68.328 363.413 68.328 363.205 68.328C362.117 68.328 361.045 68.92 360.453 70.152V68.456H359.221Z" fill="black"/>
<path d="M475.731 75.2864L477.219 76.7681L481.327 72.6786L485.454 76.7879L486.922 75.3259L482.795 71.2167L486.863 67.1667L485.374 65.6851L481.307 69.735L477.18 65.6258L475.711 67.0877L479.839 71.197L475.731 75.2864Z" fill="black"/>
<g filter="url(#filter2_d_519_3202)">
<rect x="533.274" y="36.1682" width="68.2962" height="70" rx="10" fill="#00BF58"/>
</g>
<path d="M576.778 68.6376C576.778 74.0363 572.382 78.4184 566.951 78.4184C561.521 78.4184 557.125 74.0363 557.125 68.6376C557.125 63.2388 561.521 58.8567 566.951 58.8567C572.382 58.8567 576.778 63.2388 576.778 68.6376Z" stroke="white" stroke-width="1.5"/>
<path d="M573.694 75.3508L578.47 80.7861" stroke="white" stroke-width="1.5"/>
<defs>
<filter id="filter0_d_519_3202" x="0" y="97" width="719.252" height="655" filterUnits="userSpaceOnUse" color-interpolation-filters="sRGB">
<feFlood flood-opacity="0" result="BackgroundImageFix"/>
<feColorMatrix in="SourceAlpha" type="matrix" values="0 0 0 0 0 0 0 0 0 0 0 0 0 0 0 0 0 0 127 0" result="hardAlpha"/>
<feOffset dx="20" dy="50"/>
<feGaussianBlur stdDeviation="50"/>
<feComposite in2="hardAlpha" operator="out"/>
<feColorMatrix type="matrix" values="0 0 0 0 0 0 0 0 0 0.0822229 0 0 0 0 0.241832 0 0 0 0.04 0"/>
<feBlend mode="normal" in2="BackgroundImageFix" result="effect1_dropShadow_519_3202"/>
<feBlend mode="normal" in="SourceGraphic" in2="effect1_dropShadow_519_3202" result="shape"/>
</filter>
<filter id="filter1_d_519_3202" x="20.3096" y="6" width="551.873" height="190" filterUnits="userSpaceOnUse" color-interpolation-filters="sRGB">
<feFlood flood-opacity="0" result="BackgroundImageFix"/>
<feColorMatrix in="SourceAlpha" type="matrix" values="0 0 0 0 0 0 0 0 0 0 0 0 0 0 0 0 0 0 127 0" result="hardAlpha"/>
<feOffset dy="30"/>
<feGaussianBlur stdDeviation="30"/>
<feComposite in2="hardAlpha" operator="out"/>
<feColorMatrix type="matrix" values="0 0 0 0 0 0 0 0 0 0.126552 0 0 0 0 0.154332 0 0 0 0.1 0"/>
<feBlend mode="normal" in2="BackgroundImageFix" result="effect1_dropShadow_519_3202"/>
<feBlend mode="normal" in="SourceGraphic" in2="effect1_dropShadow_519_3202" result="shape"/>
</filter>
<filter id="filter2_d_519_3202" x="493.274" y="16.1682" width="148.296" height="150" filterUnits="userSpaceOnUse" color-interpolation-filters="sRGB">
<feFlood flood-opacity="0" result="BackgroundImageFix"/>
<feColorMatrix in="SourceAlpha" type="matrix" values="0 0 0 0 0 0 0 0 0 0 0 0 0 0 0 0 0 0 127 0" result="hardAlpha"/>
<feOffset dy="20"/>
<feGaussianBlur stdDeviation="20"/>
<feComposite in2="hardAlpha" operator="out"/>
<feColorMatrix type="matrix" values="0 0 0 0 0 0 0 0 0 0.274959 0 0 0 0 0.126682 0 0 0 0.31 0"/>
<feBlend mode="normal" in2="BackgroundImageFix" result="effect1_dropShadow_519_3202"/>
<feBlend mode="normal" in="SourceGraphic" in2="effect1_dropShadow_519_3202" result="shape"/>
</filter>
</defs>
</svg>
