<svg width="1600" height="1027" viewBox="0 0 1600 1027" fill="none" xmlns="http://www.w3.org/2000/svg">
<mask id="mask0_519_6891" style="mask-type:alpha" maskUnits="userSpaceOnUse" x="0" y="0" width="1602" height="1027">
<path d="M0 0H1602V895C1602 895 929.665 902.243 531.33 947C264.33 977 0 1027 0 1027V0Z" fill="#D9D9D9"/>
</mask>
<g mask="url(#mask0_519_6891)">
<path d="M0 0H1602V895C1602 895 929.665 902.243 531.33 947C264.33 977 0 1027 0 1027V0Z" fill="#E2F9EE"/>
<ellipse cx="1577.71" cy="4.12882" rx="200" ry="111" transform="rotate(30 1577.71 4.12882)" fill="#D3F3E2"/>
<ellipse cx="50.1519" cy="1056.98" rx="200" ry="111" transform="rotate(13.2821 50.1519 1056.98)" fill="#B8E6CD"/>
<path d="M850 406.5C850 269.257 961.257 158 1098.5 158C1235.74 158 1347 269.257 1347 406.5V927H850V406.5Z" fill="black" fill-opacity="0.03"/>
</g>
</svg>
